<svg width="20" height="20" class="#000" xmlns="http://www.w3.org/2000/svg"><path d="M6.36 2.975c.15-.082.308.044.308.214v11.278c0 .197-.135.364-.308.458l-1.958 1.117c-1.367.783-2.492.133-2.492-1.45V6.483c0-.525.375-1.175.842-1.441zM12.222 5.062a.5.5 0 0 1 .278.448v10.777a.5.5 0 0 1-.717.45l-3.375-1.626a.5.5 0 0 1-.283-.45V3.839a.5.5 0 0 1 .722-.448zM18.332 5.408v8.109c0 .525-.375 1.175-.842 1.441l-2.784 1.596a.5.5 0 0 1-.749-.433V5.323a.5.5 0 0 1 .252-.435l1.631-.93c1.367-.784 2.492-.134 2.492 1.45"/></svg>
