<svg xmlns="http://www.w3.org/2000/svg" width="16" height="16" fill="none" viewBox="0 0 16 16"><path fill="#000" d="M8 0a8 8 0 1 0 0 16A8 8 0 0 0 8 0m2.725 12L8.972 9.397H5.277V12H3.273V4h7.056c.443 0 .803.048 1.092.132.288.096.528.24.744.444.204.216.348.455.432.731s.133.636.133 1.091v.6c0 .768-.133 1.343-.397 1.703s-.584.579-1.296.684L12.97 12z"/><path fill="#000" d="M10.004 5.764H5.277v1.87h4.727v.002c.277 0 .469-.036.565-.12s.156-.24.156-.48v-.672c0-.228-.06-.384-.156-.468-.097-.084-.289-.132-.565-.132"/></svg>