<svg xmlns="http://www.w3.org/2000/svg" width="14" height="14" fill="none" viewBox="0 0 14 14"><path fill="#000" d="M7 0a7 7 0 1 1 0 14A7 7 0 0 1 7 0m2.862 4.214c-.263.005-.667.145-2.611.954q-1.021.425-4.082 1.758-.497.197-.522.386c-.03.242.319.318.757.46.358.117.838.253 1.088.258q.34.008.76-.28Q8.11 5.82 8.204 5.798c.044-.01.104-.022.145.014.04.037.037.104.033.124-.035.147-1.826 1.777-1.929 1.884-.394.41-.842.66-.151 1.115.598.394.946.646 1.562 1.05.394.257.702.563 1.109.526.187-.018.38-.193.478-.718.232-1.24.688-3.925.793-5.032a1.2 1.2 0 0 0-.012-.276.3.3 0 0 0-.1-.19.46.46 0 0 0-.27-.081"/></svg>