<svg xmlns="http://www.w3.org/2000/svg" width="18" height="18" fill="none" viewBox="0 0 18 18"><g clip-path="url(#a)"><path fill="#fff" d="M9 0a9 9 0 1 1 0 18A9 9 0 0 1 9 0m3.68 5.418c-.339.006-.858.187-3.358 1.227q-1.312.546-5.248 2.26-.64.255-.67.497c-.039.311.41.408.973.591.46.15 1.078.324 1.4.331q.436.009.975-.36 3.672-2.478 3.796-2.509c.056-.013.134-.029.186.018.053.046.048.135.042.159-.044.19-2.347 2.285-2.48 2.423-.505.526-1.082.847-.193 1.432.768.507 1.216.83 2.008 1.35.506.332.903.725 1.426.677.24-.023.49-.249.615-.923.299-1.594.884-5.047 1.02-6.47a1.6 1.6 0 0 0-.016-.354.38.38 0 0 0-.128-.245.6.6 0 0 0-.348-.104"/></g><defs><clipPath id="a"><path fill="#fff" d="M0 0h18v18H0z"/></clipPath></defs></svg>