<svg xmlns="http://www.w3.org/2000/svg" width="18" height="18" fill="none" viewBox="0 0 18 18"><path fill="#fff" d="M16.736 1.264C15.47 0 13.432 0 9.375 0h-.75C4.568 0 2.531 0 1.264 1.264-.004 2.527 0 4.567 0 8.625v.75c0 4.057 0 6.094 1.264 7.361C2.527 18.004 4.567 18 8.625 18h.75c4.073 0 6.109 0 7.376-1.264S18 13.432 18 9.375v-.75c0-4.057 0-6.094-1.264-7.361m-3.821 11.704A3.7 3.7 0 0 0 9.81 10.29v2.678h-.233c-4.102 0-6.442-2.813-6.54-7.5h2.056c.067 3.435 1.582 4.874 2.782 5.19V5.475H9.81v2.963c1.185-.128 2.43-1.478 2.85-2.963h1.935a5.7 5.7 0 0 1-2.625 3.75 5.92 5.92 0 0 1 3.082 3.75z"/></svg>